<?xml version="1.0" encoding="utf-8"?>
<!-- Generator: Adobe Illustrator 27.5.0, SVG Export Plug-In . SVG Version: 6.00 Build 0)  -->
<svg version="1.1" id="Calque_1" xmlns="http://www.w3.org/2000/svg" xmlns:xlink="http://www.w3.org/1999/xlink" x="0px" y="0px"
	 viewBox="0 0 105 160" style="enable-background:new 0 0 105 160;" xml:space="preserve">
<style type="text/css">
	.st0{fill-rule:evenodd;clip-rule:evenodd;fill:#F46D04;}
</style>
<g>
	<path class="st0" d="M61.5,67.1c-0.5,0.1-0.9,0.4-1,1c9.6,1,19.3,1.3,29,1c2.1,1.6,2.4,3.6,1,6c-16.6,18.5-33.5,36.8-50.5,55
		c-2.1,3-4.8,3.6-8,2c-0.7-2-0.7-4,0-6c4.9-13.8,9.9-27.4,15-41c3.4-1.8,5.6-0.8,6.5,3c-3.2,8.7-6,17.3-8.5,26
		c11.1-12.8,22.6-25.3,34.5-37.5c-8.7-0.3-17.3-0.7-26-1c-1.8-1.5-2.3-3.3-1.5-5.5c3.1-7.8,5.6-15.5,7.5-23
		C48.4,59.4,37,71.6,25.5,83.6c4,0.3,8,0.7,12,1c2.4,2.1,2.4,4.1,0,6c-7.7,0.7-15.3,0.7-23,0c-1.3-1.8-1.3-3.6,0-5.5
		c17.5-19.3,35.1-38.5,53-57.5c3.4-1.3,5.4-0.3,6,3C69.6,42.8,65.6,54.9,61.5,67.1z"/>
</g>
</svg>
